<svg xmlns="http://www.w3.org/2000/svg" viewBox="0 0 1200 900" role="img"><rect width="1200" height="900" fill="#f4f0e8"/><circle cx="700" cy="560" r="215" fill="#96a28f" opacity=".68"/><path d="M930 90c155 75 220 220 205 390" fill="none" stroke="#879685" stroke-width="28" stroke-linecap="round" opacity=".25"/><g transform="translate(615 235)"><circle cx="105" cy="55" r="26" fill="#252824"/><path d="M78 88c19-17 53-17 70 0l-4 191-55 1z" fill="#d7d1c7"/><path d="M90 280l56 2 82 190-35 17-74-147-48 165-38-10 35-208z" fill="#252824"/><path d="M191 488h75v23h-83zm-166 15h76v23H16z" fill="#e9e4da"/></g><g stroke="#f9f8f3" stroke-width="3" fill="none"><circle cx="715" cy="515" r="7" fill="#f9f8f3"/><circle cx="682" cy="628" r="7" fill="#f9f8f3"/><circle cx="643" cy="742" r="7" fill="#f9f8f3"/><circle cx="828" cy="724" r="7" fill="#f9f8f3"/><path d="M715 515l-33 113-39 114m72-227l113 209"/></g><g fill="none" stroke="#7f8d80" opacity=".38"><circle cx="955" cy="175" r="38"/><path d="M955 215v360m0-285c-25 32-36 67-21 110m21-48c33 40 36 86 8 132"/></g><g font-family="Arial,Helvetica,sans-serif" fill="#171914"><text x="64" y="85" font-size="18" letter-spacing="8">KŌMØ REVIEW</text><text x="64" y="210" font-family="Georgia,serif" font-size="86" letter-spacing="4">LOCOMOTIVE</text><text x="64" y="305" font-family="Georgia,serif" font-size="86" letter-spacing="4">SYNDROME</text><line x1="64" y1="348" x2="110" y2="348" stroke="#879685" stroke-width="3"/><text x="64" y="418" font-size="28">A clinical framework for</text><text x="64" y="456" font-size="28">mobility decline.</text><text x="930" y="445" font-size="16" letter-spacing="5">SCREEN · TEST · ACT</text><text x="935" y="510" font-size="18">BALANCE</text><text x="935" y="555" font-size="18">STRENGTH</text><text x="935" y="600" font-size="18">GAIT SPEED</text><text x="935" y="645" font-size="18">FUNCTION</text></g></svg>